<svg id="Layer_1" data-name="Layer 1" xmlns="http://www.w3.org/2000/svg" viewBox="0 0 1000 300"><defs><style>.cls-1{fill:#666;}.cls-2{fill:#fff;}.cls-3{fill:#fdd106;}.cls-4{fill:#1ac3f3;}.cls-5{fill:#8cc760;}.cls-6{fill:#333;}.cls-7{fill:#888;}</style></defs><path class="cls-1" d="M212,162.15l.26-.14-.1,0-.27.14Z"/><path class="cls-1" d="M255.61,188.91q-1.77-2.06-3.6-3.91c-15.61-15.86-38.09-22.18-40.16-22.85-13.89,7-30.87,12.24-51.45,15.67,0,0,.72,1.82.72,1.82.82.89,38.24,40.49,94.65,9.45Z"/><path id="Eyeball" class="cls-2" d="M211.47,162.27C262.94,136,273,92.31,274,87.41c-.18-.32-.37-.63-.56-1a77.58,77.58,0,0,0-71.2-10.3,71.15,71.15,0,0,0-35.9,28C153.76,123.33,150.8,148,157,170.08c.55,2.08,1.22,4.12,1.94,6.14.36.7.73,1.38,1.1,2.06,20.63-3.49,37.64-8.81,51.54-15.92C211.08,162.21,211,162.18,211.47,162.27Z"/><path id="Body" class="cls-3" d="M96.31,187.29a120.66,120.66,0,0,1-16.5-56.77c-.33-10.89.16-22.77-2-32.68A26.17,26.17,0,0,0,65.85,81c-4-2.6-6.84-3.42-11.2-5.62-.2-.1-.39-.22-.59-.33C42.8,76.35,30.32,73.46,17.75,61.94c-.36,9.58.8,19.82,8.42,26.89,1.7,1.58,3.72,3.6,5.77,5.47,3.49,3.19,13.22,6.84,12.11,23.79-.62,9.48-1.81,25-.88,35.87a133.82,133.82,0,0,0,32.57,76.91c41.37,47.09,119,59.44,174.83,8.23h0C174.86,260.43,123.05,232.84,96.31,187.29Z"/><path id="Wing" class="cls-4" d="M202.55,223.73C147.87,207.77,88,118.34,144.12,61.46,183,22.05,227,41.78,232.65,44.55a122.41,122.41,0,0,0-114.57-8c-.17.08-.54.26-1.1.5-7.76,3.42-51.75,27.59-86.08-3.66C31.42,47.86,36.51,65,49,72.31c1.86,1.09,3.75,2.11,5.64,3.07,4.36,2.2,7.17,3,11.2,5.62a26.17,26.17,0,0,1,12,16.88c2.14,9.91,1.65,21.78,2,32.68a120.69,120.69,0,0,0,16.5,56.77c26.74,45.55,78.56,73.15,154.23,51.8h0"/><path id="Crest" class="cls-5" d="M166.69,104.41a70.68,70.68,0,0,1,35.64-27.78A77.4,77.4,0,0,1,274,87.49a123.55,123.55,0,0,0-28.43-33.65l-.81-.68c-1.45-1.18-2.94-2.3-4.44-3.41-.7-.51-1.39-1-2.1-1.53-1.19-.84-2.41-1.65-3.64-2.45-.74-.49-1.49-1-2.25-1.43-5.66-2.77-49.65-22.5-88.53,16.91-56.11,56.88,3.75,146.31,58.43,162.27-30.37-16.4-39.72-40.47-41.77-44.8h0a75.56,75.56,0,0,1-3-9C151.27,147.84,154.22,123.37,166.69,104.41Z"/><path id="Retina" class="cls-6" d="M235.48,110.44A6.31,6.31,0,0,1,231.87,99c-4.09-5.68-10.71-10.06-20.21-10.06,7.21,15.13,7.55,37.78,0,52.27,15.52,0,25.36-13.63,25.36-26.74a23.68,23.68,0,0,0-.37-4.11A6.45,6.45,0,0,1,235.48,110.44Z"/><path id="Upper_beak" data-name="Upper beak" class="cls-7" d="M290.25,147.48A122.26,122.26,0,0,1,275.16,207c-2.07,3.7-6.79,2.57-8.28-.53a80.25,80.25,0,0,0-11.51-17.56q-1.78-2.06-3.61-3.91c-17.46-17.74-43.53-23.55-40-22.85,54-27.57,62.1-74.35,62.15-74.65A121.39,121.39,0,0,1,290.25,147.48Z"/><g id="Decentology"><path class="cls-2" d="M340.63,210.53H326.05V77.42h21.39a28.05,28.05,0,0,1,17.8,6.25,36.91,36.91,0,0,1,12.12,17q6.43,17,6.44,43.17,0,26.33-6.44,43.36-4.17,11-11.93,17a29.08,29.08,0,0,1-17.8,6.25Zm6.63-9.66a18.79,18.79,0,0,0,12.3-4.54A28.68,28.68,0,0,0,368.27,184q5.87-15.71,5.87-40.14,0-24.24-5.87-39.95a30.47,30.47,0,0,0-8.52-12.31,19.54,19.54,0,0,0-12.49-4.54H335.71V200.87Z"/><path class="cls-2" d="M408.79,208.16a25.65,25.65,0,0,1-9.56-9.56,25.94,25.94,0,0,1-3.5-13.25V134.79a26,26,0,0,1,3.5-13.25,25.65,25.65,0,0,1,9.56-9.56A26,26,0,0,1,422,108.47a26.16,26.16,0,0,1,22.63,13.07,26,26,0,0,1,3.5,13.25v29.73l-42.79-.19v21a16.19,16.19,0,0,0,4.83,11.74A15.93,15.93,0,0,0,422,202a28.54,28.54,0,0,0,10.23-1.8,33.39,33.39,0,0,0,9.47-5.77l6.25,7.38a42.89,42.89,0,0,1-12.31,7.48A38.17,38.17,0,0,1,422,211.67,26,26,0,0,1,408.79,208.16Zm29.73-73.37a16.2,16.2,0,0,0-4.83-11.74A15.73,15.73,0,0,0,422,118.13a15.93,15.93,0,0,0-11.83,4.92,16.2,16.2,0,0,0-4.83,11.74v20.83l33.14.19Z"/><path class="cls-2" d="M476.38,208a26.12,26.12,0,0,1-13.06-22.62V134.6A26.12,26.12,0,0,1,476.38,112a26,26,0,0,1,13.26-3.51A40,40,0,0,1,509,113.4v11.93L507.44,124a28.76,28.76,0,0,0-17.8-5.87A16.11,16.11,0,0,0,477.8,123,15.86,15.86,0,0,0,473,134.6v50.75A15.86,15.86,0,0,0,477.8,197a16.11,16.11,0,0,0,11.84,4.83,28.15,28.15,0,0,0,17.8-6.06l1.51-1.13v11.73a38.09,38.09,0,0,1-19.31,5.12A26,26,0,0,1,476.38,208Z"/><path class="cls-2" d="M535.64,208.16a25.72,25.72,0,0,1-9.56-9.56,26,26,0,0,1-3.5-13.25V134.79a26.07,26.07,0,0,1,3.5-13.25,25.72,25.72,0,0,1,9.56-9.56,26,26,0,0,1,13.26-3.51,26.19,26.19,0,0,1,22.63,13.07,26.07,26.07,0,0,1,3.5,13.25v29.73l-42.79-.19v21a16.19,16.19,0,0,0,4.83,11.74A15.92,15.92,0,0,0,548.9,202a28.48,28.48,0,0,0,10.22-1.8,33.25,33.25,0,0,0,9.47-5.77l6.25,7.38a42.62,42.62,0,0,1-12.31,7.48,38.11,38.11,0,0,1-13.63,2.37A26,26,0,0,1,535.64,208.16Zm29.73-73.37a16.2,16.2,0,0,0-4.83-11.74,15.72,15.72,0,0,0-11.64-4.92,15.92,15.92,0,0,0-11.83,4.92,16.2,16.2,0,0,0-4.83,11.74v20.83l33.13.19Z"/><path class="cls-2" d="M590.55,109.8h9.66v8.14q6.06-9.47,18.55-9.47A21.43,21.43,0,0,1,629,111.12a27.39,27.39,0,0,1,8.52,7.2,32.84,32.84,0,0,1,4.73,9.66,44.4,44.4,0,0,1,.76,5.3v77.25h-9.66V133.85a19.64,19.64,0,0,0-.57-3.41,15.18,15.18,0,0,0-3-6.06,17.1,17.1,0,0,0-5.11-4.36,14.73,14.73,0,0,0-6.44-1.89,5.05,5.05,0,0,0-1.51-.19,16.39,16.39,0,0,0-6,1.14,16.22,16.22,0,0,0-5.2,3.22,18.38,18.38,0,0,0-3.88,5.68,16.16,16.16,0,0,0-1.42,6.62v75.93h-9.66Z"/><path class="cls-2" d="M668.18,206a17.82,17.82,0,0,1-5.49-13.06V119.46h-9.84V109.8h9.84V77.42h9.66V109.8h15.52v9.66H672.35v73.46a9.05,9.05,0,0,0,8.9,8.9,16.67,16.67,0,0,0,6.25-1.14l1.32-.56v10.22a24.91,24.91,0,0,1-7.57,1.14A17.82,17.82,0,0,1,668.18,206Z"/><path class="cls-2" d="M712.87,208.16a25.67,25.67,0,0,1-9.57-9.56,26,26,0,0,1-3.5-13.25V134.6a26.07,26.07,0,0,1,3.5-13.25,26.26,26.26,0,0,1,45.44,0,26,26,0,0,1,3.51,13.25v50.75a26,26,0,0,1-3.51,13.25,26.16,26.16,0,0,1-22.62,13.07A25.93,25.93,0,0,1,712.87,208.16Zm24.89-11a16.08,16.08,0,0,0,4.83-11.83V134.6a16.1,16.1,0,0,0-4.83-11.83,15.86,15.86,0,0,0-11.64-4.83,16.49,16.49,0,0,0-16.66,16.66v50.75A16.49,16.49,0,0,0,726.12,202,15.86,15.86,0,0,0,737.76,197.18Z"/><path class="cls-2" d="M767.39,76.47h9.66V210.53h-9.66Z"/><path class="cls-2" d="M806.77,208.16a25.72,25.72,0,0,1-9.56-9.56,26,26,0,0,1-3.5-13.25V134.6a26.07,26.07,0,0,1,3.5-13.25,25.72,25.72,0,0,1,9.56-9.56A26,26,0,0,1,820,108.28a26.19,26.19,0,0,1,22.63,13.07,26.07,26.07,0,0,1,3.5,13.25v50.75a26,26,0,0,1-3.5,13.25,26.34,26.34,0,0,1-35.89,9.56Zm24.9-11a16.08,16.08,0,0,0,4.83-11.83V134.6a16.1,16.1,0,0,0-4.83-11.83A15.85,15.85,0,0,0,820,117.94a16.48,16.48,0,0,0-16.66,16.66v50.75A16.48,16.48,0,0,0,820,202,15.85,15.85,0,0,0,831.67,197.18Z"/><path class="cls-2" d="M859.79,226.81l-.76-.56,6.25-7.39a35.18,35.18,0,0,0,9.47,5.59,29.06,29.06,0,0,0,10.41,1.8,16.47,16.47,0,0,0,16.47-16.48V197.09q-6.06,9.47-18.55,9.47a21.3,21.3,0,0,1-10.23-2.66,25.2,25.2,0,0,1-8.33-7.19,28,28,0,0,1-4.92-9.66,40.52,40.52,0,0,1-.76-5.3V133.66c.25-2.28.5-4,.76-5.3a28,28,0,0,1,4.92-9.66,25.39,25.39,0,0,1,8.14-7.1,23.1,23.1,0,0,1,10.61-2.94,22.78,22.78,0,0,1,10.6,2.46,20.27,20.27,0,0,1,7.76,7.2V109.8h9.66v100a26.12,26.12,0,0,1-26.13,26.13A38.14,38.14,0,0,1,859.79,226.81ZM891.13,196a16.4,16.4,0,0,0,5.2-3.22,18.38,18.38,0,0,0,3.88-5.68,16.17,16.17,0,0,0,1.42-6.63V134.79a15.86,15.86,0,0,0-5.3-12.11,16.22,16.22,0,0,0-5.2-3.22,16.36,16.36,0,0,0-13.26.56,15.63,15.63,0,0,0-5.77,4.74,15,15,0,0,0-3,6.06l-.57,3.4v47a19.64,19.64,0,0,0,.57,3.41,15,15,0,0,0,3,6.06,16.47,16.47,0,0,0,5.2,4.35,15,15,0,0,0,6.35,1.9,5.1,5.1,0,0,0,1.51.19A16.39,16.39,0,0,0,891.13,196Z"/><path class="cls-2" d="M947.83,210.53,923.6,109.8h10l19.13,80.09,19.31-80.09h9.85L951.81,235H942Z"/></g><g id="TM"><path class="cls-2" d="M972.37,93.75h-1.7v-.91H975v.91h-1.71v9.75h-.91Z"/><path class="cls-2" d="M976,92.84h.89l2,8.24,2-8.24h.89V103.5h-.91V96.86l-1.53,6.4h-.83l-1.53-6.4v6.64H976Z"/></g></svg>